<?xml version="1.0" encoding="UTF-8"?>
<svg width="100" height="100" viewBox="0 0 100 100" xmlns="http://www.w3.org/2000/svg">
    <!-- Background -->
    <rect width="100" height="100" fill="#B91C1C"/>
    
    <!-- Motif Songket Palembang -->
    <g fill="#D4AF37" fill-opacity="0.3">
        <!-- Motif Utama -->
        <path d="M20,20 L40,20 L40,40 L20,40 Z" transform="rotate(45,30,30)"/>
        <path d="M60,20 L80,20 L80,40 L60,40 Z" transform="rotate(45,70,30)"/>
        <path d="M20,60 L40,60 L40,80 L20,80 Z" transform="rotate(45,30,70)"/>
        <path d="M60,60 L80,60 L80,80 L60,80 Z" transform="rotate(45,70,70)"/>
        
        <!-- Motif Hiasan -->
        <circle cx="50" cy="50" r="15"/>
        <circle cx="50" cy="50" r="10"/>
        
        <!-- Garis-garis Hiasan -->
        <path d="M10,50 L90,50" stroke="#D4AF37" stroke-width="1"/>
        <path d="M50,10 L50,90" stroke="#D4AF37" stroke-width="1"/>
        
        <!-- Motif Tambahan -->
        <path d="M30,30 L70,30 L70,70 L30,70 Z" fill="none" stroke="#D4AF37" stroke-width="1"/>
    </g>
</svg> 