<?xml version="1.0" encoding="UTF-8"?>
<svg xmlns="http://www.w3.org/2000/svg" width="40" height="40" viewBox="0 0 40 40">
    <!-- Background Circle -->
    <circle cx="20" cy="20" r="18" fill="#B91C1C" stroke="#D4AF37" stroke-width="2"/>
    
    <!-- Decorative Elements -->
    <path d="M20 8C13.373 8 8 13.373 8 20C8 26.627 13.373 32 20 32C26.627 32 32 26.627 32 20C32 13.373 26.627 8 20 8ZM20 30C14.477 30 10 25.523 10 20C10 14.477 14.477 10 20 10C25.523 10 30 14.477 30 20C30 25.523 25.523 30 20 30Z" fill="#D4AF37"/>
    
    <!-- Letter D -->
    <path d="M16 12H24C26.209 12 28 13.791 28 16V24C28 26.209 26.209 28 24 28H16C13.791 28 12 26.209 12 24V16C12 13.791 13.791 12 16 12ZM24 26C25.105 26 26 25.105 26 24V16C26 14.895 25.105 14 24 14H16C14.895 14 14 14.895 14 16V24C14 25.105 14.895 26 16 26H24Z" fill="#FFFFFF"/>
    
    <!-- Decorative Lines -->
    <path d="M16 16H24M16 20H24M16 24H24" stroke="#D4AF37" stroke-width="2" stroke-linecap="round"/>
    
    <!-- Text -->
    <text x="20" y="25" font-family="Arial" font-size="20" fill="white" text-anchor="middle">D</text>
</svg> 